<?xml version="1.0" encoding="utf-8"?>
<!-- Generator: Adobe Illustrator 26.0.1, SVG Export Plug-In . SVG Version: 6.00 Build 0)  -->
<svg version="1.1" id="Camada_1" xmlns="http://www.w3.org/2000/svg" xmlns:xlink="http://www.w3.org/1999/xlink" x="0px" y="0px"
	 viewBox="0 0 500 500" style="enable-background:new 0 0 500 500;" xml:space="preserve">
<style type="text/css">
	.st0{fill-rule:evenodd;clip-rule:evenodd;fill:#FFFFFF;}
</style>
<path class="st0" d="M96.8,122.5c0-6.7,2.7-13.2,7.4-17.9c4.8-4.8,11.2-7.4,18-7.4h253c3.3,0,6.6,0.7,9.7,1.9s5.9,3.1,8.2,5.5
	c2.4,2.4,4.2,5.2,5.5,8.2s1.9,6.4,1.9,9.7v253c0,3.3-0.6,6.6-1.9,9.7c-1.3,3.1-3.1,5.9-5.5,8.2c-2.4,2.4-5.2,4.2-8.2,5.5
	c-3.1,1.3-6.4,1.9-9.7,1.9h-253c-3.3,0-6.6-0.7-9.7-1.9c-3.1-1.3-5.9-3.1-8.2-5.5c-2.4-2.4-4.2-5.2-5.5-8.2s-1.9-6.4-1.9-9.7
	L96.8,122.5L96.8,122.5z M217,212.9h41.1v20.7c5.9-11.9,21.1-22.6,44-22.6c43.8,0,54.1,23.6,54.1,67.1v80.4H312V288
	c0-24.7-5.9-38.7-21-38.7c-20.9,0-29.6,15-29.6,38.7v70.5H217L217,212.9L217,212.9z M141.1,356.6h44.3V211h-44.3V356.6L141.1,356.6z
	 M191.7,163.6c0.1,3.8-0.6,7.6-2,11.1c-1.4,3.5-3.5,6.7-6.1,9.4c-2.6,2.7-5.8,4.9-9.3,6.3s-7.2,2.2-11.1,2.2
	c-3.8,0-7.6-0.8-11.1-2.2s-6.7-3.6-9.3-6.3c-2.6-2.7-4.7-5.9-6.1-9.4c-1.4-3.5-2.1-7.3-2-11.1c0.2-7.4,3.2-14.5,8.6-19.7
	c5.3-5.2,12.5-8.1,19.9-8.1s14.6,2.9,19.9,8.1C188.5,149,191.6,156.1,191.7,163.6L191.7,163.6z"/>
</svg>
