<!-- Generator: Adobe Illustrator 26.0.1, SVG Export Plug-In . SVG Version: 6.00 Build 0)  -->
<svg version="1.1" id="Camada_1" xmlns="http://www.w3.org/2000/svg" xmlns:xlink="http://www.w3.org/1999/xlink" x="0px" y="0px"
	 viewBox="0 0 500 500" style="enable-background:new 0 0 500 500;" xml:space="preserve">
<style type="text/css">
	.st0{fill:#FFFFFF;}
</style>
<path class="st0" d="M461.7,34.6L461.7,34.6h-69.1H106.9h-69h-0.1c-4.2,0-7.7,3.4-7.7,7.7V466c0,4.2,3.4,7.7,7.7,7.7h0.1h69h285.7
	h69.1c4.2,0,7.7-3.4,7.7-7.7v0v-69.1V111.4V42.3C469.3,38,465.9,34.6,461.7,34.6z M124.6,119h250.2c5.6,0,10.1,4.5,10.1,10.1v250.1
	c0,5.6-4.5,10.1-10.1,10.1H124.6c-5.6,0-10.1-4.5-10.1-10.1V129.1C114.6,123.5,119.1,119,124.6,119z"/>
</svg>
