<?xml version="1.0" encoding="utf-8"?>
<!-- Generator: Adobe Illustrator 26.0.1, SVG Export Plug-In . SVG Version: 6.00 Build 0)  -->
<svg version="1.1" id="Camada_1" xmlns="http://www.w3.org/2000/svg" xmlns:xlink="http://www.w3.org/1999/xlink" x="0px" y="0px"
	 viewBox="0 0 500 500" style="enable-background:new 0 0 500 500;" xml:space="preserve">
<g>
	<path d="M168.6,410.7c0-10,0-19.6,0-29.3c0-3.7,0-3.7-3.8-3.7c-17.4,0-34.8,0-52.1,0c-3.6,0-3.6,0-3.6-3.5
		c0-77.2,0-154.3,0.1-231.5c0-3.8,1.2-7.6,2.1-11.3c3.3-13.6,6.8-27.2,10.1-40.9c0.5-2.2,1.4-2.9,3.7-2.9
		c88.1,0.1,176.3,0.1,264.4,0c2.3,0,3.1,0.6,3.1,3c-0.1,59.7,0,119.4-0.1,179.1c0,1.4-0.8,3.2-1.8,4.2c-33.9,34-68,68-102,102
		c-1,1-2.8,1.7-4.2,1.7c-15.7,0.1-31.3,0.1-47,0c-2.3,0-4,0.6-5.7,2.3c-9.4,9.6-19,19-28.4,28.5c-1.6,1.7-3.3,2.4-5.7,2.4
		c-8.8-0.1-17.6,0-26.5-0.1C170.5,410.9,169.7,410.8,168.6,410.7z M207.6,345.8c1.4-1.2,2.1-1.9,2.8-2.5
		c11.5-11.5,23.1-23,34.6-34.6c1.8-1.9,3.7-2.7,6.3-2.7c22.1,0.1,44.1,0,66.2,0.1c2,0,3.5-0.6,5-2c14.2-14.2,28.4-28.4,42.6-42.6
		c1.4-1.4,1.9-2.8,1.9-4.8c0-46.6,0-93.1,0-139.7c0-3.6,0-3.6-3.5-3.6c-70.7,0-141.4,0-212,0c-3.6,0-3.6,0-3.6,3.6
		c0,61.8,0,123.5,0,185.3c0,3.7,0.1,3.7,3.8,3.7c17.4,0,34.8,0,52.1,0c3.5,0,3.5,0,3.6,3.6c0,10.6,0,21.2,0,31.9
		C207.3,342.6,207.5,343.8,207.6,345.8z"/>
	<path d="M221.5,206.3c0-12,0.1-23.9,0-35.9c0-2.4,0.5-3.4,3.1-3.3c6.6,0.2,13.1,0.1,19.7,0c2,0,2.8,0.5,2.8,2.7
		c-0.1,24.3-0.1,48.6,0,72.9c0,2.2-0.8,2.8-2.8,2.7c-6.6-0.1-13.1-0.1-19.7,0c-2.3,0-3.1-0.6-3.1-3
		C221.6,230.4,221.5,218.4,221.5,206.3z"/>
	<path d="M319.8,206.4c0,11.8,0,23.6,0,35.4c0,3.6,0,3.7-3.5,3.7c-6.3,0-12.6-0.1-18.9,0c-2.1,0-3.1-0.5-3.1-2.9
		c0.1-24.2,0.1-48.4,0-72.6c0-2.3,0.9-2.9,3-2.9c6.5,0.1,13,0.1,19.4,0c2.4,0,3.1,0.8,3.1,3.1C319.7,182.3,319.8,194.3,319.8,206.4z
		"/>
</g>
</svg>
